<svg width="747" height="743" viewBox="0 0 747 743" fill="none" xmlns="http://www.w3.org/2000/svg">
<path d="M580.917 444.977C580.954 446.312 580.978 447.649 580.991 448.989L579.991 448.998C579.997 449.665 580 450.332 580 451C580 451.668 579.997 452.336 579.991 453.003L580.991 453.012C580.978 454.351 580.954 455.689 580.917 457.023L579.917 456.995C579.88 458.324 579.831 459.649 579.77 460.973L580.769 461.019C580.708 462.352 580.634 463.682 580.548 465.01L579.55 464.945C579.464 466.276 579.366 467.603 579.255 468.928L580.252 469.011C580.141 470.342 580.017 471.67 579.882 472.996L578.887 472.894C578.753 474.214 578.606 475.532 578.447 476.846L579.44 476.966C579.279 478.295 579.106 479.621 578.921 480.944L577.931 480.806C577.746 482.123 577.55 483.436 577.342 484.747L578.33 484.904C578.121 486.22 577.9 487.533 577.667 488.843L576.682 488.668C576.449 489.979 576.203 491.287 575.946 492.592L576.927 492.785C576.669 494.096 576.399 495.403 576.117 496.706L575.139 496.495C574.858 497.792 574.566 499.086 574.261 500.377L575.235 500.606C574.928 501.907 574.609 503.204 574.279 504.497L573.31 504.25C572.981 505.538 572.641 506.822 572.288 508.103L573.252 508.368C572.898 509.654 572.533 510.937 572.156 512.215L571.197 511.932C570.821 513.207 570.433 514.478 570.034 515.745L570.988 516.046C570.587 517.319 570.175 518.589 569.751 519.854L568.803 519.536C568.381 520.796 567.947 522.052 567.503 523.303L568.445 523.638C567.998 524.895 567.54 526.149 567.071 527.398L566.135 527.046C565.668 528.29 565.189 529.529 564.7 530.764L565.629 531.133C565.138 532.374 564.635 533.61 564.121 534.842L563.198 534.457C562.687 535.683 562.164 536.904 561.631 538.121L562.547 538.522C562.012 539.744 561.466 540.962 560.909 542.174L560 541.757C559.445 542.964 558.88 544.167 558.304 545.365L559.205 545.799C558.627 547.001 558.039 548.199 557.439 549.392L556.546 548.943C555.95 550.129 555.343 551.311 554.726 552.488L555.612 552.952C554.992 554.134 554.362 555.311 553.722 556.483L552.844 556.003C552.207 557.169 551.56 558.33 550.903 559.486L551.772 559.981C551.113 561.139 550.444 562.293 549.764 563.441L548.904 562.932C548.227 564.075 547.541 565.214 546.845 566.347L547.697 566.871C546.998 568.008 546.289 569.14 545.57 570.267L544.727 569.729C544.014 570.848 543.291 571.961 542.558 573.069L543.392 573.62C542.656 574.733 541.911 575.84 541.156 576.942L540.331 576.377C539.579 577.474 538.817 578.565 538.046 579.652L538.862 580.23C538.091 581.316 537.311 582.396 536.522 583.471L535.716 582.879C534.93 583.949 534.135 585.014 533.33 586.074L534.126 586.678C533.318 587.742 532.501 588.8 531.675 589.852L530.889 589.235C530.07 590.278 529.242 591.315 528.405 592.347L529.181 592.977C528.342 594.012 527.493 595.041 526.636 596.065L525.869 595.423C525.015 596.443 524.152 597.456 523.28 598.464L524.037 599.119C523.166 600.126 522.286 601.128 521.397 602.124L520.651 601.458C519.767 602.448 518.875 603.433 517.975 604.411L518.711 605.088C517.807 606.071 516.894 607.047 515.974 608.017L515.248 607.329C514.334 608.292 513.412 609.249 512.481 610.2L513.196 610.9C512.265 611.852 511.325 612.797 510.378 613.737L509.674 613.027C508.73 613.963 507.778 614.893 506.818 615.817L507.512 616.537C506.55 617.463 505.581 618.382 504.604 619.294L503.921 618.564C502.952 619.469 501.976 620.368 500.991 621.26L501.663 622.001C500.675 622.897 499.68 623.787 498.676 624.67L498.016 623.92C497.017 624.799 496.01 625.672 494.996 626.539L495.646 627.299C494.635 628.164 493.617 629.021 492.591 629.873L491.953 629.103C490.931 629.952 489.902 630.794 488.865 631.629L489.493 632.408C488.453 633.246 487.406 634.078 486.351 634.904L485.735 634.117C484.691 634.934 483.64 635.745 482.582 636.549L483.187 637.345C482.126 638.151 481.059 638.951 479.985 639.744L479.391 638.939C478.321 639.73 477.243 640.513 476.159 641.29L476.742 642.103C475.659 642.879 474.569 643.649 473.473 644.412L472.901 643.591C471.813 644.349 470.717 645.1 469.616 645.844L470.175 646.673C469.07 647.42 467.958 648.16 466.839 648.893L466.291 648.057C465.178 648.786 464.06 649.509 462.934 650.225L463.471 651.069C462.349 651.783 461.221 652.49 460.086 653.19L459.561 652.339C458.43 653.037 457.294 653.728 456.151 654.413L456.665 655.27C455.518 655.957 454.365 656.637 453.206 657.309L452.704 656.445C451.558 657.11 450.406 657.768 449.249 658.42L449.739 659.292C448.578 659.945 447.412 660.591 446.239 661.231L445.76 660.353C444.592 660.99 443.418 661.62 442.238 662.244L442.705 663.128C441.527 663.75 440.343 664.365 439.154 664.974L438.699 664.083C437.518 664.688 436.331 665.285 435.14 665.875L435.583 666.771C434.388 667.363 433.187 667.948 431.98 668.525L431.549 667.623C430.348 668.198 429.142 668.766 427.931 669.327L428.351 670.234C427.145 670.793 425.933 671.344 424.717 671.888L424.308 670.975C423.096 671.518 421.878 672.053 420.655 672.581L421.052 673.499C419.825 674.029 418.594 674.552 417.357 675.067L416.972 674.144C415.748 674.654 414.519 675.157 413.285 675.653L413.658 676.581C412.422 677.077 411.182 677.566 409.938 678.048L409.577 677.116C408.336 677.596 407.09 678.069 405.84 678.535L406.19 679.472C404.939 679.938 403.684 680.396 402.424 680.847L402.087 679.906C400.839 680.353 399.587 680.792 398.331 681.225L398.656 682.17C397.395 682.604 396.131 683.03 394.861 683.449L394.548 682.5C393.283 682.917 392.013 683.327 390.739 683.73L391.041 684.684C389.773 685.085 388.501 685.478 387.224 685.864L386.935 684.907C385.664 685.292 384.39 685.669 383.112 686.038L383.389 686.999C382.107 687.369 380.821 687.733 379.531 688.088L379.265 687.124C377.982 687.478 376.696 687.824 375.406 688.163L375.66 689.13C374.374 689.467 373.084 689.797 371.791 690.12L371.549 689.149C370.26 689.471 368.966 689.785 367.67 690.091L367.9 691.065C366.599 691.372 365.295 691.672 363.987 691.964L363.769 690.988C362.474 691.277 361.177 691.559 359.876 691.833L360.082 692.812C358.78 693.086 357.474 693.353 356.165 693.612L355.971 692.631C354.665 692.89 353.357 693.141 352.045 693.384L352.227 694.367C350.914 694.611 349.598 694.847 348.278 695.075L348.108 694.09C346.802 694.315 345.494 694.534 344.183 694.744L344.341 695.732C343.026 695.943 341.707 696.147 340.386 696.343L340.239 695.353C338.921 695.549 337.601 695.737 336.277 695.917L336.412 696.908C335.092 697.087 333.77 697.259 332.444 697.424L332.321 696.431C331.006 696.594 329.687 696.75 328.366 696.898L328.477 697.892C327.151 698.04 325.823 698.18 324.492 698.313L324.393 697.318C323.066 697.451 321.736 697.576 320.404 697.693L320.492 698.689C319.169 698.805 317.843 698.914 316.515 699.015L316.439 698.018C315.116 698.119 313.79 698.212 312.462 698.297L312.526 699.295C311.194 699.381 309.859 699.458 308.522 699.529L308.47 698.53C307.14 698.6 305.808 698.662 304.474 698.716L304.514 699.715C303.188 699.769 301.859 699.816 300.527 699.854L300.498 698.855C299.171 698.893 297.841 698.924 296.509 698.948L296.526 699.947C295.19 699.971 293.852 699.986 292.512 699.994L292.506 698.994C291.838 698.998 291.169 699 290.5 699C289.831 699 289.162 698.998 288.493 698.994L288.487 699.994C287.147 699.986 285.809 699.971 284.473 699.947L284.491 698.948C283.159 698.924 281.829 698.893 280.501 698.855L280.472 699.854C279.141 699.816 277.812 699.769 276.485 699.715L276.526 698.716C275.191 698.662 273.859 698.6 272.53 698.53L272.477 699.529C271.14 699.458 269.806 699.381 268.473 699.295L268.538 698.297C267.209 698.212 265.884 698.119 264.56 698.018L264.485 699.015C263.156 698.914 261.831 698.805 260.508 698.689L260.596 697.693C259.263 697.576 257.934 697.451 256.607 697.318L256.507 698.313C255.176 698.18 253.848 698.04 252.523 697.891L252.634 696.898C251.313 696.75 249.994 696.594 248.678 696.431L248.555 697.424C247.23 697.259 245.907 697.087 244.588 696.908L244.723 695.917C243.399 695.737 242.078 695.549 240.761 695.353L240.614 696.343C239.292 696.147 237.974 695.943 236.658 695.732L236.817 694.744C235.506 694.534 234.197 694.315 232.892 694.09L232.722 695.075C231.402 694.847 230.085 694.611 228.772 694.367L228.955 693.384C227.643 693.141 226.334 692.89 225.029 692.631L224.835 693.612C223.526 693.353 222.22 693.086 220.918 692.812L221.124 691.833C219.823 691.559 218.525 691.277 217.231 690.988L217.013 691.964C215.705 691.672 214.401 691.372 213.1 691.064L213.33 690.091C212.033 689.785 210.74 689.471 209.451 689.149L209.209 690.12C207.915 689.797 206.626 689.467 205.34 689.13L205.594 688.162C204.304 687.824 203.017 687.478 201.735 687.124L201.469 688.088C200.179 687.733 198.893 687.369 197.61 686.999L197.888 686.038C196.61 685.668 195.335 685.292 194.065 684.907L193.775 685.864C192.499 685.478 191.227 685.085 189.959 684.684L190.26 683.73C188.987 683.327 187.717 682.917 186.452 682.5L186.138 683.449C184.869 683.03 183.604 682.604 182.344 682.17L182.669 681.225C181.412 680.792 180.16 680.353 178.912 679.906L178.575 680.847C177.316 680.396 176.061 679.937 174.81 679.472L175.159 678.534C173.909 678.069 172.664 677.596 171.423 677.116L171.062 678.048C169.817 677.566 168.577 677.077 167.342 676.581L167.715 675.653C166.481 675.157 165.252 674.654 164.027 674.144L163.643 675.067C162.406 674.552 161.175 674.029 159.948 673.499L160.344 672.581C159.122 672.053 157.904 671.518 156.691 670.975L156.283 671.888C155.067 671.344 153.855 670.793 152.649 670.234L153.069 669.327C151.858 668.766 150.652 668.198 149.451 667.623L149.019 668.525C147.813 667.947 146.612 667.363 145.416 666.771L145.86 665.874C144.668 665.284 143.482 664.687 142.301 664.083L141.846 664.974C140.656 664.365 139.473 663.75 138.295 663.128L138.762 662.243C137.582 661.62 136.408 660.99 135.239 660.353L134.761 661.23C133.588 660.591 132.422 659.945 131.261 659.291L131.751 658.42C130.593 657.768 129.441 657.11 128.295 656.444L127.793 657.309C126.635 656.637 125.482 655.957 124.335 655.27L124.849 654.412C123.706 653.728 122.569 653.037 121.439 652.339L120.913 653.19C119.779 652.49 118.651 651.782 117.529 651.069L118.065 650.225C116.94 649.509 115.821 648.786 114.709 648.057L114.161 648.893C113.042 648.16 111.93 647.42 110.824 646.673L111.384 645.844C110.282 645.1 109.187 644.349 108.098 643.591L107.527 644.412C106.431 643.649 105.341 642.879 104.258 642.103L104.84 641.29C103.756 640.513 102.679 639.73 101.609 638.939L101.015 639.744C99.9407 638.951 98.8734 638.151 97.813 637.345L98.4182 636.549C97.3602 635.745 96.3091 634.934 95.2651 634.116L94.6486 634.904C93.5942 634.078 92.5469 633.246 91.5069 632.408L92.1345 631.629C91.0982 630.794 90.069 629.952 89.0471 629.103L88.4084 629.873C87.3828 629.021 86.3645 628.163 85.3537 627.299L86.0035 626.539C84.9896 625.672 83.9831 624.799 82.9842 623.919L82.3234 624.67C81.3202 623.787 80.3246 622.897 79.3366 622.001L80.0084 621.26C79.0241 620.368 78.0475 619.469 77.0786 618.564L76.396 619.294C75.4189 618.381 74.4496 617.462 73.4883 616.537L74.1817 615.817C73.2219 614.893 72.27 613.963 71.3261 613.027L70.6219 613.737C69.6745 612.797 68.7351 611.851 67.8039 610.899L68.5187 610.2C67.5881 609.249 66.6658 608.292 65.7517 607.329L65.0263 608.017C64.1055 607.047 63.1931 606.07 62.2892 605.088L63.025 604.411C62.1245 603.432 61.2324 602.448 60.3489 601.458L59.6027 602.124C58.7142 601.128 57.8343 600.126 56.963 599.118L57.7195 598.464C56.8478 597.456 55.9849 596.442 55.1308 595.423L54.3643 596.065C53.5068 595.041 52.6582 594.012 51.8185 592.977L52.5951 592.347C51.7582 591.315 50.9302 590.277 50.1113 589.234L49.3247 589.852C48.4985 588.8 47.6815 587.742 46.8736 586.678L47.6699 586.073C46.8653 585.014 46.0699 583.949 45.2838 582.879L44.4778 583.471C43.6885 582.396 42.9085 581.316 42.1379 580.23L42.9534 579.651C42.1825 578.565 41.421 577.473 40.6691 576.376L39.8442 576.942C39.0891 575.84 38.3436 574.733 37.6077 573.62L38.4418 573.068C37.709 571.961 36.9859 570.847 36.2726 569.729L35.4295 570.267C34.7108 569.14 34.0021 568.008 33.3033 566.87L34.1553 566.347C33.4589 565.214 32.7725 564.075 32.0962 562.932L31.2354 563.441C30.5562 562.292 29.8871 561.139 29.2281 559.98L30.0973 559.486C29.4398 558.33 28.7925 557.169 28.1554 556.003L27.2778 556.482C26.6375 555.31 26.0075 554.134 25.3879 552.952L26.2735 552.487C25.6566 551.311 25.0501 550.129 24.4541 548.943L23.5605 549.391C22.9613 548.199 22.3726 547.001 21.7945 545.798L22.6958 545.365C22.1199 544.167 21.5545 542.964 21 541.757L20.0913 542.174C19.5342 540.961 18.988 539.744 18.4527 538.522L19.3686 538.121C18.8355 536.904 18.3132 535.682 17.8018 534.456L16.8789 534.841C16.3651 533.609 15.8623 532.373 15.3706 531.132L16.3003 530.764C15.8108 529.529 15.3323 528.289 14.865 527.046L13.9289 527.397C13.4597 526.148 13.0016 524.895 12.5548 523.637L13.4971 523.302C13.0526 522.051 12.6193 520.796 12.1973 519.536L11.2491 519.854C10.8252 518.588 10.4127 517.319 10.0117 516.045L10.9656 515.745C10.5666 514.478 10.1791 513.207 9.80315 511.932L8.84399 512.215C8.46692 510.936 8.10138 509.654 7.74748 508.367L8.71167 508.102C8.35939 506.822 8.01871 505.537 7.68971 504.249L6.72082 504.497C6.39049 503.203 6.0719 501.906 5.76513 500.606L6.73843 500.376C6.4341 499.086 6.14146 497.792 5.86063 496.494L4.88326 496.706C4.60111 495.402 4.33082 494.095 4.07247 492.785L5.05359 492.591C4.79646 491.287 4.55123 489.979 4.31798 488.668L3.33343 488.843C3.10042 487.533 2.87931 486.22 2.67021 484.903L3.65783 484.746C3.4497 483.436 3.25352 482.122 3.06939 480.805L2.07902 480.944C1.89403 479.621 1.72114 478.295 1.56045 476.965L2.55322 476.845C2.39435 475.531 2.24746 474.214 2.11264 472.894L1.11782 472.995C0.982506 471.67 0.859306 470.342 0.748311 469.011L1.74485 468.928C1.63437 467.603 1.53604 466.275 1.44995 464.945L0.452038 465.009C0.366136 463.682 0.292369 462.351 0.230828 461.018L1.22977 460.972C1.16869 459.649 1.11971 458.323 1.08292 456.995L0.0833069 457.023C0.0463511 455.688 0.0216444 454.351 0.00927949 453.011L1.00924 453.002C1.00308 452.335 1 451.668 1 451C1 450.332 1.00308 449.664 1.00924 448.997L0.00928428 448.988C0.0216524 447.649 0.0463622 446.311 0.0833211 444.977L1.08294 445.005C1.11973 443.676 1.16871 442.351 1.22979 441.027L0.230852 440.981C0.292395 439.648 0.366166 438.318 0.452071 436.99L1.44998 437.055C1.53608 435.724 1.63441 434.397 1.74489 433.072L0.748352 432.989C0.85935 431.658 0.982553 430.33 1.11787 429.004L2.11269 429.106C2.24751 427.786 2.3944 426.468 2.55328 425.154L1.56051 425.034C1.7212 423.705 1.89409 422.379 2.07909 421.056L3.06945 421.194C3.25359 419.877 3.44977 418.564 3.65791 417.253L2.67029 417.096C2.87939 415.78 3.1005 414.467 3.33351 413.157L4.31806 413.332C4.55131 412.021 4.79655 410.713 5.05367 409.408L4.07256 409.215C4.33091 407.904 4.60121 406.597 4.88335 405.294L5.86072 405.505C6.14156 404.208 6.4342 402.914 6.73853 401.623L5.76523 401.394C6.072 400.093 6.3906 398.796 6.72093 397.503L7.68982 397.75C8.01882 396.462 8.35951 395.178 8.71178 393.897L7.7476 393.632C8.1015 392.346 8.46704 391.063 8.84412 389.785L9.80328 390.068C10.1793 388.793 10.5668 387.522 10.9657 386.255L10.0119 385.954C10.4129 384.681 10.8254 383.411 11.2493 382.146L12.1975 382.464C12.6194 381.204 13.0527 379.948 13.4973 378.697L12.555 378.362C13.0017 377.105 13.4598 375.851 13.9291 374.602L14.8652 374.954C15.3325 373.71 15.8109 372.471 16.3004 371.236L15.3708 370.867C15.8625 369.626 16.3652 368.39 16.879 367.158L17.802 367.543C18.3133 366.317 18.8356 365.096 19.3688 363.879L18.4528 363.478C18.9881 362.256 19.5344 361.038 20.0914 359.826L21.0001 360.243C21.5547 359.036 22.12 357.833 22.696 356.635L21.7947 356.201C22.3727 354.999 22.9614 353.801 23.5607 352.608L24.4543 353.057C25.0503 351.871 25.6568 350.689 26.2737 349.512L25.388 349.048C26.0076 347.866 26.6376 346.689 27.278 345.517L28.1555 345.997C28.7926 344.831 29.44 343.67 30.0975 342.514L29.2283 342.019C29.8872 340.861 30.5564 339.707 31.2356 338.559L32.0963 339.068C32.7727 337.925 33.4591 336.786 34.1554 335.653L33.3034 335.129C34.0022 333.992 34.711 332.86 35.4297 331.733L36.2728 332.271C36.9861 331.152 37.7092 330.039 38.442 328.931L37.6079 328.38C38.3437 327.267 39.0892 326.16 39.8444 325.058L40.6692 325.623C41.4211 324.526 42.1826 323.435 42.9536 322.348L42.1381 321.77C42.9087 320.684 43.6887 319.604 44.478 318.529L45.284 319.121C46.0701 318.051 46.8655 316.986 47.6701 315.926L46.8738 315.321C47.6816 314.258 48.4987 313.2 49.3249 312.148L50.1115 312.765C50.9304 311.722 51.7584 310.685 52.5953 309.653L51.8187 309.023C52.6584 307.988 53.507 306.959 54.3644 305.935L55.131 306.577C55.9851 305.557 56.848 304.544 57.7196 303.536L56.9632 302.881C57.8345 301.874 58.7144 300.872 59.6029 299.876L60.3491 300.542C61.2326 299.552 62.1247 298.567 63.0252 297.589L62.2894 296.912C63.1933 295.929 64.1057 294.953 65.0265 293.983L65.7518 294.671C66.6659 293.708 67.5883 292.751 68.5189 291.8L67.8041 291.1C68.7353 290.148 69.6747 289.203 70.6221 288.263L71.3263 288.973C72.2702 288.037 73.2221 287.107 74.1819 286.183L73.4885 285.463C74.4498 284.537 75.4191 283.618 76.3962 282.706L77.0788 283.436C78.0477 282.531 79.0243 281.632 80.0086 280.74L79.3368 279.999C80.3248 279.103 81.3204 278.213 82.3236 277.33L82.9844 278.08C83.9833 277.201 84.9898 276.328 86.0037 275.461L85.3539 274.701C86.3648 273.836 87.383 272.979 88.4086 272.127L89.0474 272.897C90.0692 272.048 91.0984 271.206 92.1347 270.371L91.5071 269.592C92.5472 268.754 93.5944 267.922 94.6489 267.096L95.2653 267.883C96.3093 267.066 97.3604 266.255 98.4184 265.451L97.8132 264.655C98.8736 263.849 99.9409 263.049 101.015 262.256L101.609 263.061C102.679 262.27 103.757 261.487 104.841 260.71L104.258 259.897C105.341 259.121 106.431 258.351 107.527 257.588L108.099 258.409C109.187 257.651 110.283 256.9 111.384 256.156L110.825 255.327C111.93 254.58 113.042 253.84 114.161 253.107L114.709 253.943C115.822 253.213 116.94 252.491 118.066 251.775L117.529 250.931C118.651 250.217 119.779 249.51 120.914 248.81L121.439 249.661C122.57 248.963 123.706 248.272 124.849 247.587L124.335 246.73C125.482 246.043 126.635 245.363 127.794 244.691L128.296 245.555C129.442 244.89 130.594 244.232 131.751 243.58L131.261 242.709C132.422 242.055 133.588 241.409 134.761 240.769L135.24 241.647C136.408 241.01 137.582 240.38 138.762 239.756L138.295 238.872C139.473 238.25 140.657 237.635 141.846 237.026L142.301 237.917C143.482 237.312 144.669 236.715 145.86 236.125L145.417 235.229C146.612 234.637 147.813 234.052 149.02 233.475L149.451 234.377C150.652 233.802 151.858 233.234 153.069 232.673L152.649 231.766C153.855 231.207 155.067 230.656 156.283 230.112L156.692 231.025C157.904 230.482 159.122 229.947 160.345 229.419L159.948 228.501C161.175 227.971 162.406 227.448 163.643 226.933L164.028 227.856C165.252 227.346 166.481 226.843 167.715 226.347L167.342 225.419C168.578 224.923 169.818 224.434 171.062 223.952L171.423 224.884C172.664 224.404 173.91 223.931 175.16 223.465L174.81 222.528C176.061 222.062 177.316 221.604 178.576 221.153L178.913 222.094C180.161 221.647 181.413 221.208 182.669 220.775L182.344 219.83C183.605 219.396 184.869 218.97 186.139 218.551L186.452 219.5C187.717 219.083 188.987 218.673 190.261 218.27L189.959 217.316C191.227 216.915 192.499 216.522 193.776 216.136L194.065 217.093C195.336 216.708 196.61 216.331 197.888 215.962L197.611 215.001C198.893 214.631 200.179 214.267 201.469 213.912L201.735 214.876C203.018 214.522 204.304 214.176 205.594 213.837L205.34 212.87C206.626 212.533 207.916 212.203 209.209 211.88L209.451 212.851C210.74 212.529 212.033 212.215 213.33 211.909L213.1 210.935C214.401 210.628 215.705 210.328 217.013 210.036L217.231 211.012C218.525 210.723 219.823 210.441 221.124 210.167L220.918 209.188C222.22 208.914 223.526 208.647 224.835 208.388L225.029 209.369C226.335 209.11 227.643 208.859 228.955 208.616L228.773 207.633C230.086 207.389 231.402 207.153 232.722 206.925L232.892 207.91C234.198 207.685 235.506 207.466 236.817 207.256L236.659 206.268C237.974 206.057 239.293 205.853 240.614 205.657L240.761 206.647C242.079 206.451 243.399 206.263 244.723 206.083L244.588 205.092C245.908 204.913 247.23 204.741 248.556 204.576L248.679 205.569C249.994 205.406 251.313 205.25 252.634 205.102L252.523 204.109C253.849 203.96 255.177 203.82 256.508 203.687L256.607 204.682C257.934 204.549 259.264 204.424 260.596 204.307L260.508 203.311C261.831 203.195 263.157 203.086 264.485 202.985L264.561 203.982C265.884 203.881 267.21 203.788 268.538 203.703L268.474 202.705C269.806 202.619 271.141 202.542 272.478 202.471L272.53 203.47C273.86 203.4 275.192 203.338 276.526 203.284L276.486 202.285C277.812 202.231 279.142 202.184 280.473 202.146L280.502 203.145C281.829 203.107 283.159 203.076 284.491 203.052L284.474 202.053C285.81 202.029 287.148 202.014 288.488 202.006L288.494 203.006C289.162 203.002 289.831 203 290.5 203C291.169 203 291.838 203.002 292.507 203.006L292.513 202.006C293.853 202.014 295.191 202.029 296.527 202.053L296.509 203.052C297.841 203.076 299.171 203.107 300.499 203.145L300.528 202.146C301.859 202.184 303.188 202.231 304.515 202.285L304.474 203.284C305.809 203.338 307.141 203.4 308.47 203.47L308.523 202.471C309.86 202.542 311.194 202.619 312.527 202.705L312.462 203.703C313.791 203.788 315.116 203.881 316.44 203.982L316.515 202.985C317.844 203.086 319.169 203.195 320.492 203.311L320.404 204.307C321.737 204.424 323.066 204.549 324.393 204.682L324.493 203.687C325.824 203.82 327.152 203.96 328.477 204.109L328.366 205.102C329.687 205.25 331.006 205.406 332.322 205.569L332.445 204.576C333.77 204.741 335.093 204.913 336.412 205.092L336.277 206.083C337.601 206.263 338.922 206.451 340.239 206.647L340.386 205.657C341.708 205.853 343.026 206.057 344.342 206.268L344.183 207.256C345.494 207.466 346.803 207.685 348.108 207.91L348.278 206.925C349.598 207.153 350.915 207.389 352.228 207.633L352.045 208.616C353.357 208.859 354.666 209.11 355.971 209.369L356.165 208.388C357.474 208.647 358.78 208.914 360.082 209.188L359.876 210.167C361.177 210.441 362.475 210.723 363.769 211.012L363.987 210.036C365.295 210.328 366.599 210.628 367.9 210.936L367.67 211.909C368.967 212.215 370.26 212.529 371.549 212.851L371.791 211.88C373.085 212.203 374.374 212.533 375.66 212.87L375.406 213.838C376.696 214.176 377.983 214.522 379.265 214.876L379.531 213.912C380.821 214.267 382.108 214.631 383.39 215.001L383.112 215.962C384.39 216.332 385.665 216.708 386.935 217.093L387.225 216.136C388.501 216.522 389.773 216.915 391.041 217.316L390.74 218.27C392.013 218.673 393.283 219.083 394.548 219.5L394.862 218.551C396.131 218.97 397.396 219.396 398.656 219.83L398.331 220.775C399.588 221.208 400.84 221.647 402.088 222.094L402.425 221.153C403.684 221.604 404.939 222.063 406.19 222.528L405.841 223.466C407.091 223.931 408.336 224.404 409.577 224.884L409.938 223.952C411.183 224.434 412.423 224.923 413.658 225.419L413.285 226.347C414.519 226.843 415.748 227.346 416.973 227.856L417.357 226.933C418.594 227.448 419.825 227.971 421.052 228.501L420.656 229.419C421.878 229.947 423.096 230.482 424.309 231.025L424.717 230.112C425.933 230.656 427.145 231.207 428.351 231.766L427.931 232.673C429.142 233.234 430.348 233.802 431.549 234.377L431.981 233.475C433.187 234.053 434.388 234.637 435.584 235.229L435.14 236.126C436.332 236.716 437.518 237.313 438.699 237.917L439.154 237.026C440.344 237.635 441.527 238.25 442.705 238.872L442.238 239.757C443.418 240.38 444.592 241.01 445.761 241.647L446.239 240.769C447.412 241.409 448.578 242.055 449.739 242.709L449.249 243.58C450.407 244.232 451.559 244.89 452.705 245.556L453.207 244.691C454.365 245.363 455.518 246.043 456.665 246.73L456.151 247.588C457.294 248.272 458.431 248.963 459.561 249.661L460.087 248.81C461.221 249.51 462.349 250.218 463.471 250.931L462.935 251.775C464.06 252.491 465.179 253.214 466.291 253.943L466.839 253.107C467.958 253.84 469.07 254.58 470.176 255.327L469.616 256.156C470.718 256.9 471.813 257.651 472.902 258.409L473.473 257.588C474.569 258.351 475.659 259.121 476.742 259.897L476.16 260.71C477.244 261.487 478.321 262.27 479.391 263.061L479.985 262.256C481.059 263.049 482.127 263.849 483.187 264.655L482.582 265.451C483.64 266.255 484.691 267.066 485.735 267.884L486.351 267.096C487.406 267.922 488.453 268.754 489.493 269.592L488.865 270.371C489.902 271.206 490.931 272.048 491.953 272.897L492.592 272.127C493.617 272.979 494.635 273.837 495.646 274.701L494.997 275.461C496.01 276.328 497.017 277.201 498.016 278.081L498.677 277.33C499.68 278.213 500.675 279.103 501.663 279.999L500.992 280.74C501.976 281.632 502.953 282.531 503.921 283.437L504.604 282.706C505.581 283.619 506.55 284.538 507.512 285.463L506.818 286.183C507.778 287.107 508.73 288.037 509.674 288.973L510.378 288.263C511.326 289.203 512.265 290.149 513.196 291.101L512.481 291.8C513.412 292.751 514.334 293.708 515.248 294.671L515.974 293.983C516.894 294.953 517.807 295.93 518.711 296.912L517.975 297.589C518.875 298.568 519.768 299.552 520.651 300.542L521.397 299.876C522.286 300.872 523.166 301.874 524.037 302.882L523.281 303.536C524.152 304.544 525.015 305.558 525.869 306.577L526.636 305.935C527.493 306.959 528.342 307.988 529.182 309.023L528.405 309.653C529.242 310.685 530.07 311.722 530.889 312.766L531.675 312.148C532.501 313.2 533.319 314.258 534.126 315.322L533.33 315.927C534.135 316.986 534.93 318.051 535.716 319.121L536.522 318.529C537.312 319.604 538.091 320.684 538.862 321.77L538.047 322.349C538.818 323.435 539.579 324.527 540.331 325.624L541.156 325.058C541.911 326.16 542.656 327.267 543.392 328.38L542.558 328.932C543.291 330.039 544.014 331.153 544.727 332.271L545.57 331.733C546.289 332.86 546.998 333.992 547.697 335.13L546.845 335.653C547.541 336.786 548.227 337.925 548.904 339.068L549.765 338.559C550.444 339.708 551.113 340.861 551.772 342.02L550.903 342.514C551.56 343.67 552.208 344.831 552.845 345.997L553.722 345.518C554.363 346.69 554.993 347.866 555.612 349.048L554.726 349.513C555.343 350.689 555.95 351.871 556.546 353.057L557.439 352.609C558.039 353.801 558.627 354.999 559.205 356.202L558.304 356.635C558.88 357.833 559.445 359.036 560 360.243L560.909 359.826C561.466 361.039 562.012 362.256 562.547 363.478L561.631 363.879C562.165 365.096 562.687 366.318 563.198 367.544L564.121 367.159C564.635 368.391 565.138 369.627 565.629 370.868L564.7 371.236C565.189 372.471 565.668 373.711 566.135 374.954L567.071 374.603C567.54 375.852 567.998 377.105 568.445 378.363L567.503 378.698C567.947 379.949 568.381 381.204 568.803 382.464L569.751 382.146C570.175 383.412 570.587 384.681 570.988 385.955L570.034 386.255C570.433 387.522 570.821 388.793 571.197 390.068L572.156 389.785C572.533 391.064 572.899 392.346 573.253 393.633L572.288 393.898C572.641 395.178 572.981 396.463 573.31 397.751L574.279 397.503C574.609 398.797 574.928 400.094 575.235 401.394L574.262 401.624C574.566 402.914 574.859 404.208 575.139 405.506L576.117 405.294C576.399 406.598 576.669 407.905 576.928 409.215L575.946 409.409C576.204 410.713 576.449 412.021 576.682 413.332L577.667 413.157C577.9 414.467 578.121 415.78 578.33 417.097L577.342 417.254C577.55 418.564 577.746 419.878 577.931 421.195L578.921 421.056C579.106 422.379 579.279 423.705 579.44 425.035L578.447 425.155C578.606 426.469 578.753 427.786 578.887 429.106L579.882 429.005C580.018 430.33 580.141 431.658 580.252 432.989L579.255 433.072C579.366 434.397 579.464 435.725 579.55 437.055L580.548 436.991C580.634 438.318 580.708 439.649 580.769 440.982L579.77 441.028C579.831 442.351 579.88 443.677 579.917 445.005L580.917 444.977Z" stroke="black" stroke-width="2" stroke-dasharray="4 4"/>
<path d="M444.038 685.5C-14.3623 549.5 219.704 172.167 394.038 0.5L613.538 -61.5L956.038 -108L1044.54 168.5C1035.37 397.5 902.438 821.5 444.038 685.5Z" fill="#CCF1D3"/>
<path d="M450.211 128.833C308.068 66.8903 203.188 199.568 168.016 274.65C57.8911 582.486 339.024 770.601 474.254 738.437C661.03 694.014 574.313 566.114 507.607 507.717C457.154 444.523 472.031 293.682 485.776 226.16C506.152 182.362 470.222 143.693 450.211 128.833Z" fill="#2A461C" stroke="#00BA21"/>
</svg>
