<svg width="52" height="48" viewBox="0 0 52 48" fill="none" xmlns="http://www.w3.org/2000/svg">
<rect width="52" height="48" rx="10" fill="#FFDED4"/>
<g clip-path="url(#clip0_156_486)">
<path d="M26 38.7695C17.8559 38.7695 11.2302 32.1438 11.2302 23.9997C11.2302 15.8556 17.8559 9.22985 26 9.22985C34.1441 9.22985 40.7698 15.8556 40.7698 23.9997C40.7698 32.1438 34.1441 38.7695 26 38.7695ZM26.3282 29.303C28.4544 29.3372 30.5156 29.7002 32.3894 30.3527C32.8565 28.5337 33.1292 26.4905 33.1545 24.3279H26.3282V29.303ZM26.3282 29.9595V38.0967C28.8486 37.8712 31.0323 35.0633 32.2158 30.9868C30.4008 30.3494 28.3976 29.9936 26.3282 29.9595ZM25.6718 29.9595C23.602 29.9936 21.5992 30.3494 19.7839 30.9871C20.9674 35.0633 23.1511 37.8712 25.6718 38.0967V29.9595ZM25.6718 29.303V24.3279H18.8455C18.8708 26.4905 19.1435 28.5337 19.6106 30.3527C21.4844 29.7002 23.5456 29.3372 25.6718 29.303ZM18.1891 24.3279H11.8948C11.969 27.5504 13.1263 30.5086 15.0188 32.8517C16.1708 31.9216 17.5198 31.1542 19.0047 30.5746C18.5055 28.6857 18.2153 26.5677 18.1891 24.3279ZM18.1891 23.6715C18.215 21.4317 18.5055 19.3137 19.0047 17.4245C17.5201 16.8448 16.1708 16.0775 15.0191 15.1473C13.1263 17.4908 11.969 20.449 11.8948 23.6715H18.1891ZM18.8455 23.6715H25.6718V18.6967C23.5456 18.6625 21.4844 18.2992 19.6106 17.6467C19.1435 19.4657 18.8708 21.5088 18.8455 23.6715ZM25.6718 18.0402V9.90269C23.1511 10.1282 20.9674 12.9361 19.7839 17.0126C21.5992 17.65 23.6024 18.0058 25.6718 18.0402ZM26.3282 18.0402C28.3976 18.0061 30.4008 17.6503 32.2158 17.0129C31.0323 12.9361 28.8489 10.1282 26.3282 9.90269V18.0402ZM26.3282 18.6967V23.6715H33.1545C33.1292 21.5088 32.8565 19.4657 32.3894 17.6467C30.5156 18.2992 28.4544 18.6625 26.3282 18.6967ZM33.8106 23.6715H40.1052C40.031 20.449 38.8737 17.4908 36.9809 15.1473C35.8288 16.0775 34.4799 16.8452 32.995 17.4245C33.4942 19.314 33.7847 21.4317 33.8106 23.6715ZM33.8106 24.3279C33.7847 26.5677 33.4942 28.6853 32.995 30.5746C34.4799 31.1542 35.8288 31.9216 36.9809 32.8517C38.8737 30.5083 40.0307 27.55 40.1049 24.3279H33.8106ZM36.5565 33.3526C35.4747 32.4812 34.2091 31.7601 32.8168 31.21C31.9145 34.2454 30.4621 36.621 28.716 37.8482C31.8088 37.2427 34.5419 35.6239 36.5565 33.3526ZM23.284 37.8482C21.5379 36.621 20.0855 34.2454 19.1832 31.2103C17.7909 31.7604 16.5253 32.4815 15.4435 33.3529C17.4578 35.6239 20.1909 37.2427 23.284 37.8482ZM15.4432 14.6468C16.525 15.5182 17.7903 16.2393 19.1829 16.7894C20.0852 13.7543 21.5375 11.3787 23.2837 10.1515C20.1909 10.7567 17.4578 12.3755 15.4432 14.6468ZM28.716 10.1512C30.4621 11.3784 31.9145 13.754 32.8168 16.7894C34.2094 16.2393 35.4747 15.5182 36.5565 14.6468C34.5419 12.3755 31.8092 10.7567 28.716 10.1512Z" fill="black"/>
</g>
<defs>
<clipPath id="clip0_156_486">
<rect width="30" height="30" fill="white" transform="matrix(1 0 0 -1 11 39)"/>
</clipPath>
</defs>
</svg>
