<svg width="63" height="65" viewBox="0 0 63 65" fill="none" xmlns="http://www.w3.org/2000/svg">
<path d="M49.3078 43.0028C46.3817 47.9702 41.3282 51.9318 35.7454 53.9043C30.164 55.8763 24.1688 55.8248 19.2969 52.955C14.425 50.0852 11.4736 44.8665 10.4925 39.0289C9.51118 33.1897 10.5261 26.8493 13.4522 21.8818C16.3784 16.9144 21.4318 12.9529 27.0146 10.9804C32.596 9.00835 38.5912 9.05982 43.4631 11.9296C48.3351 14.7995 51.2865 20.0181 52.2676 25.8558C53.2489 31.6949 52.2339 38.0353 49.3078 43.0028Z" stroke="#F0F0F0" stroke-width="2"/>
<g clip-path="url(#clip0_243_478)">
<path fill-rule="evenodd" clip-rule="evenodd" d="M33.2013 42.4424V33.4424H35.9337L36.38 29.4424H33.2013V27.4941C33.2013 26.4641 33.2276 25.4424 34.6669 25.4424H36.1247V22.5825C36.1247 22.5395 34.8725 22.4424 33.6057 22.4424C30.96 22.4424 29.3034 24.0996 29.3034 27.1426V29.4424H26.38V33.4424H29.3034V42.4424H33.2013Z" fill="#D9D9D9"/>
</g>
<defs>
<clipPath id="clip0_243_478">
<rect width="10" height="20" fill="white" transform="translate(26.38 22.4424)"/>
</clipPath>
</defs>
</svg>
