<svg width="64" height="66" viewBox="0 0 64 66" fill="none" xmlns="http://www.w3.org/2000/svg">
<path d="M49.7347 43.367C46.8086 48.3345 41.7551 52.296 36.1723 54.2685C30.5909 56.2405 24.5957 56.1891 19.7238 53.3192C14.8519 50.4494 11.9004 45.2308 10.9194 39.3931C9.93806 33.554 10.953 27.2135 13.8791 22.2461C16.8052 17.2786 21.8587 13.3171 27.4415 11.3446C33.0229 9.37261 39.0181 9.42408 43.89 12.2939C48.7619 15.1637 51.7134 20.3824 52.6945 26.22C53.6758 32.0591 52.6608 38.3996 49.7347 43.367Z" stroke="#331B3B" stroke-opacity="0.64" stroke-width="2"/>
<g clip-path="url(#clip0_125_480)">
<path d="M32.7065 23.1271C35.8612 23.1271 36.2315 23.1412 37.4784 23.1975C38.6315 23.249 39.2549 23.4412 39.6721 23.6053C40.2252 23.8209 40.619 24.074 41.0315 24.4865C41.444 24.899 41.7018 25.2928 41.9127 25.8459C42.0721 26.2631 42.269 26.8865 42.3206 28.0396C42.3768 29.2865 42.3909 29.6568 42.3909 32.8115C42.3909 35.9662 42.3768 36.3365 42.3206 37.5834C42.269 38.7365 42.0768 39.36 41.9127 39.7771C41.6971 40.3303 41.444 40.724 41.0315 41.1365C40.619 41.549 40.2252 41.8068 39.6721 42.0178C39.2549 42.1771 38.6315 42.374 37.4784 42.4256C36.2315 42.4818 35.8612 42.4959 32.7065 42.4959C29.5518 42.4959 29.1815 42.4818 27.9346 42.4256C26.7815 42.374 26.1581 42.1818 25.7409 42.0178C25.1877 41.8021 24.794 41.549 24.3815 41.1365C23.969 40.724 23.7112 40.3303 23.5002 39.7771C23.3409 39.36 23.144 38.7365 23.0924 37.5834C23.0362 36.3365 23.0221 35.9662 23.0221 32.8115C23.0221 29.6568 23.0362 29.2865 23.0924 28.0396C23.144 26.8865 23.3362 26.2631 23.5002 25.8459C23.7159 25.2928 23.969 24.899 24.3815 24.4865C24.794 24.074 25.1877 23.8162 25.7409 23.6053C26.1581 23.4459 26.7815 23.249 27.9346 23.1975C29.1815 23.1365 29.5518 23.1271 32.7065 23.1271ZM32.7065 20.999C29.5002 20.999 29.0971 21.0131 27.8362 21.0693C26.5799 21.1256 25.7221 21.3271 24.9721 21.6178C24.194 21.9178 23.5377 22.3256 22.8815 22.9818C22.2252 23.6381 21.8221 24.299 21.5174 25.0725C21.2268 25.8225 21.0252 26.6803 20.969 27.9412C20.9127 29.1975 20.8987 29.6006 20.8987 32.8068C20.8987 36.0131 20.9127 36.4162 20.969 37.6771C21.0252 38.9334 21.2268 39.7912 21.5174 40.5459C21.8174 41.324 22.2252 41.9803 22.8815 42.6365C23.5377 43.2928 24.1987 43.6959 24.9721 44.0006C25.7221 44.2912 26.5799 44.4928 27.8409 44.549C29.1018 44.6053 29.5002 44.6193 32.7112 44.6193C35.9221 44.6193 36.3206 44.6053 37.5815 44.549C38.8377 44.4928 39.6956 44.2912 40.4502 44.0006C41.2284 43.7006 41.8846 43.2928 42.5409 42.6365C43.1971 41.9803 43.6002 41.3193 43.9049 40.5459C44.1956 39.7959 44.3971 38.9381 44.4534 37.6771C44.5096 36.4162 44.5237 36.0178 44.5237 32.8068C44.5237 29.5959 44.5096 29.1975 44.4534 27.9365C44.3971 26.6803 44.1956 25.8225 43.9049 25.0678C43.6049 24.2896 43.1971 23.6334 42.5409 22.9771C41.8846 22.3209 41.2237 21.9178 40.4502 21.6131C39.7002 21.3225 38.8424 21.1209 37.5815 21.0646C36.3159 21.0131 35.9127 20.999 32.7065 20.999Z" fill="#102C03"/>
<path d="M32.7065 26.7412C29.3596 26.7412 26.6409 29.4553 26.6409 32.8068C26.6409 36.1584 29.3596 38.8725 32.7065 38.8725C36.0534 38.8725 38.7721 36.1537 38.7721 32.8068C38.7721 29.46 36.0534 26.7412 32.7065 26.7412ZM32.7065 36.7443C30.5315 36.7443 28.769 34.9818 28.769 32.8068C28.769 30.6318 30.5315 28.8693 32.7065 28.8693C34.8815 28.8693 36.644 30.6318 36.644 32.8068C36.644 34.9818 34.8815 36.7443 32.7065 36.7443Z" fill="#102C03"/>
<path d="M39.0112 27.9182C39.793 27.9182 40.4268 27.2844 40.4268 26.5025C40.4268 25.7207 39.793 25.0869 39.0112 25.0869C38.2294 25.0869 37.5956 25.7207 37.5956 26.5025C37.5956 27.2844 38.2294 27.9182 39.0112 27.9182Z" fill="#102C03"/>
</g>
<defs>
<clipPath id="clip0_125_480">
<rect width="24" height="24" fill="white" transform="translate(20.7065 20.8066)"/>
</clipPath>
</defs>
</svg>
