<svg width="63" height="65" viewBox="0 0 63 65" fill="none" xmlns="http://www.w3.org/2000/svg">
<path d="M49.3078 43.0028C46.3817 47.9702 41.3282 51.9318 35.7454 53.9043C30.164 55.8763 24.1688 55.8248 19.2969 52.955C14.425 50.0852 11.4736 44.8665 10.4925 39.0289C9.51118 33.1897 10.5261 26.8493 13.4522 21.8818C16.3784 16.9144 21.4318 12.9529 27.0146 10.9804C32.596 9.00835 38.5912 9.05982 43.4631 11.9296C48.3351 14.7995 51.2865 20.0181 52.2676 25.8558C53.2489 31.6949 52.2339 38.0353 49.3078 43.0028Z" stroke="#F0F0F0" stroke-width="2"/>
<g clip-path="url(#clip0_243_489)">
<path d="M32.2796 22.7624C35.4343 22.7624 35.8046 22.7765 37.0515 22.8327C38.2046 22.8843 38.8281 23.0765 39.2452 23.2405C39.7984 23.4562 40.1921 23.7093 40.6046 24.1218C41.0171 24.5343 41.2749 24.928 41.4859 25.4812C41.6452 25.8983 41.8421 26.5218 41.8937 27.6749C41.9499 28.9218 41.964 29.2921 41.964 32.4468C41.964 35.6015 41.9499 35.9718 41.8937 37.2187C41.8421 38.3718 41.6499 38.9952 41.4859 39.4124C41.2702 39.9655 41.0171 40.3593 40.6046 40.7718C40.1921 41.1843 39.7984 41.4421 39.2452 41.653C38.8281 41.8124 38.2046 42.0093 37.0515 42.0608C35.8046 42.1171 35.4343 42.1312 32.2796 42.1312C29.1249 42.1312 28.7546 42.1171 27.5077 42.0608C26.3546 42.0093 25.7312 41.8171 25.314 41.653C24.7609 41.4374 24.3671 41.1843 23.9546 40.7718C23.5421 40.3593 23.2843 39.9655 23.0734 39.4124C22.914 38.9952 22.7171 38.3718 22.6656 37.2187C22.6093 35.9718 22.5952 35.6015 22.5952 32.4468C22.5952 29.2921 22.6093 28.9218 22.6656 27.6749C22.7171 26.5218 22.9093 25.8983 23.0734 25.4812C23.289 24.928 23.5421 24.5343 23.9546 24.1218C24.3671 23.7093 24.7609 23.4515 25.314 23.2405C25.7312 23.0812 26.3546 22.8843 27.5077 22.8327C28.7546 22.7718 29.1249 22.7624 32.2796 22.7624ZM32.2796 20.6343C29.0734 20.6343 28.6702 20.6483 27.4093 20.7046C26.1531 20.7608 25.2952 20.9624 24.5452 21.253C23.7671 21.553 23.1109 21.9608 22.4546 22.6171C21.7984 23.2733 21.3952 23.9343 21.0906 24.7077C20.7999 25.4577 20.5984 26.3155 20.5421 27.5765C20.4859 28.8327 20.4718 29.2358 20.4718 32.4421C20.4718 35.6483 20.4859 36.0515 20.5421 37.3124C20.5984 38.5687 20.7999 39.4265 21.0906 40.1812C21.3906 40.9593 21.7984 41.6155 22.4546 42.2718C23.1109 42.928 23.7718 43.3312 24.5452 43.6358C25.2952 43.9265 26.1531 44.128 27.414 44.1843C28.6749 44.2405 29.0734 44.2546 32.2843 44.2546C35.4952 44.2546 35.8937 44.2405 37.1546 44.1843C38.4109 44.128 39.2687 43.9265 40.0234 43.6358C40.8015 43.3358 41.4577 42.928 42.114 42.2718C42.7702 41.6155 43.1734 40.9546 43.4781 40.1812C43.7687 39.4312 43.9702 38.5733 44.0265 37.3124C44.0827 36.0515 44.0968 35.653 44.0968 32.4421C44.0968 29.2312 44.0827 28.8327 44.0265 27.5718C43.9702 26.3155 43.7687 25.4577 43.4781 24.703C43.1781 23.9249 42.7702 23.2687 42.114 22.6124C41.4577 21.9562 40.7968 21.553 40.0234 21.2483C39.2734 20.9577 38.4156 20.7562 37.1546 20.6999C35.889 20.6483 35.4859 20.6343 32.2796 20.6343Z" fill="#D9D9D9"/>
<path d="M32.2796 26.3765C28.9327 26.3765 26.214 29.0905 26.214 32.4421C26.214 35.7937 28.9327 38.5077 32.2796 38.5077C35.6265 38.5077 38.3452 35.789 38.3452 32.4421C38.3452 29.0952 35.6265 26.3765 32.2796 26.3765ZM32.2796 36.3796C30.1046 36.3796 28.3421 34.6171 28.3421 32.4421C28.3421 30.2671 30.1046 28.5046 32.2796 28.5046C34.4546 28.5046 36.2171 30.2671 36.2171 32.4421C36.2171 34.6171 34.4546 36.3796 32.2796 36.3796Z" fill="#D9D9D9"/>
<path d="M38.5843 27.5529C39.3662 27.5529 40 26.9191 40 26.1373C40 25.3555 39.3662 24.7217 38.5843 24.7217C37.8025 24.7217 37.1687 25.3555 37.1687 26.1373C37.1687 26.9191 37.8025 27.5529 38.5843 27.5529Z" fill="#D9D9D9"/>
</g>
<defs>
<clipPath id="clip0_243_489">
<rect width="24" height="24" fill="white" transform="translate(20.2797 20.4424)"/>
</clipPath>
</defs>
</svg>
