<svg width="64" height="66" viewBox="0 0 64 66" fill="none" xmlns="http://www.w3.org/2000/svg">
<path d="M49.7347 43.367C46.8086 48.3345 41.7551 52.296 36.1723 54.2685C30.5909 56.2405 24.5957 56.1891 19.7238 53.3192C14.8519 50.4494 11.9004 45.2308 10.9194 39.3931C9.93806 33.554 10.953 27.2135 13.8791 22.2461C16.8052 17.2786 21.8587 13.3171 27.4415 11.3446C33.0229 9.37261 39.0181 9.42408 43.89 12.2939C48.7619 15.1637 51.7134 20.3824 52.6945 26.22C53.6758 32.0591 52.6608 38.3996 49.7347 43.367Z" stroke="#331B3B" stroke-opacity="0.64" stroke-width="2"/>
<g clip-path="url(#clip0_125_479)">
<path fill-rule="evenodd" clip-rule="evenodd" d="M41.2566 41.8066H37.5582V35.5074C37.5582 33.7803 36.9019 32.8151 35.5349 32.8151C34.0478 32.8151 33.2709 33.8195 33.2709 35.5074V41.8066H29.7066V29.8066H33.2709V31.423C33.2709 31.423 34.3425 29.44 36.889 29.44C39.4343 29.44 41.2566 30.9943 41.2566 34.209V41.8066ZM25.4544 28.2353C24.2404 28.2353 23.2566 27.2438 23.2566 26.021C23.2566 24.7981 24.2404 23.8066 25.4544 23.8066C26.6685 23.8066 27.6517 24.7981 27.6517 26.021C27.6517 27.2438 26.6685 28.2353 25.4544 28.2353ZM23.614 41.8066H27.3306V29.8066H23.614V41.8066Z" fill="#102C03"/>
</g>
<defs>
<clipPath id="clip0_125_479">
<rect width="18" height="18" fill="white" transform="translate(23.2566 23.8066)"/>
</clipPath>
</defs>
</svg>
