<svg width="52" height="48" viewBox="0 0 52 48" fill="none" xmlns="http://www.w3.org/2000/svg">
<rect width="52" height="48" rx="10" fill="#FFEED4"/>
<path d="M42.7392 30.1574H9.26086V12.7007C9.26086 11.5889 10.1652 10.6846 11.277 10.6846H40.723C41.8345 10.6846 42.7392 11.5889 42.7392 12.7007V30.1574ZM10.0048 29.4135H41.9952V12.7007C41.9952 11.9992 41.4246 11.4285 40.723 11.4285H11.277C10.5754 11.4285 10.0048 11.9992 10.0048 12.7007V29.4135Z" fill="#102C03"/>
<path d="M40.723 34.7785H11.277C10.1652 34.7785 9.26086 33.8739 9.26086 32.7624V29.4131H42.7392V32.7624C42.7392 33.8739 41.8345 34.7785 40.723 34.7785ZM10.0048 30.157V32.7624C10.0048 33.464 10.5754 34.0346 11.277 34.0346H40.723C41.4246 34.0346 41.9952 33.464 41.9952 32.7624V30.157H10.0048Z" fill="#102C03"/>
<path d="M31.1426 39.3775H20.8573C20.6966 39.3775 20.5542 39.2745 20.5039 39.1216C20.4537 38.9687 20.5077 38.8013 20.6371 38.7061C22.0499 37.6687 22.9929 36.0837 23.2242 34.3577C23.2488 34.1732 23.4065 34.0352 23.5929 34.0352H28.4063C28.5927 34.0352 28.7504 34.1728 28.7749 34.3577C29.0063 36.084 29.9497 37.6687 31.3624 38.7061C31.4923 38.8013 31.5458 38.9687 31.4956 39.1216C31.4454 39.2745 31.3037 39.3775 31.1426 39.3775ZM21.8661 38.6336H30.1342C29.0766 37.592 28.3546 36.2391 28.089 34.7787H23.9109C23.6457 36.2391 22.9237 37.592 21.8661 38.6336Z" fill="#102C03"/>
<path d="M31.9718 41.3158H20.0282C19.2887 41.3158 18.6873 40.7143 18.6873 39.9748C18.6873 39.2353 19.2887 38.6338 20.0282 38.6338H31.9718C32.7113 38.6338 33.3128 39.2353 33.3128 39.9748C33.3128 40.7143 32.7113 41.3158 31.9718 41.3158ZM20.0282 39.3774C19.699 39.3774 19.4312 39.6452 19.4312 39.9744C19.4312 40.3036 19.699 40.5714 20.0282 40.5714H31.9718C32.3014 40.5714 32.5689 40.3036 32.5689 39.9744C32.5689 39.6452 32.301 39.3774 31.9718 39.3774H20.0282Z" fill="#102C03"/>
<path d="M26.6327 32.4686H25.3672C25.1619 32.4686 24.9952 32.3023 24.9952 32.0966C24.9952 31.8909 25.1619 31.7246 25.3672 31.7246H26.6327C26.8384 31.7246 27.0047 31.8909 27.0047 32.0966C27.0047 32.3023 26.8384 32.4686 26.6327 32.4686Z" fill="#102C03"/>
</svg>
