<svg width="63" height="65" viewBox="0 0 63 65" fill="none" xmlns="http://www.w3.org/2000/svg">
<path d="M49.3078 43.0028C46.3817 47.9702 41.3282 51.9318 35.7454 53.9043C30.164 55.8763 24.1688 55.8248 19.2969 52.955C14.425 50.0852 11.4736 44.8665 10.4925 39.0289C9.51118 33.1897 10.5261 26.8493 13.4522 21.8818C16.3784 16.9144 21.4318 12.9529 27.0146 10.9804C32.596 9.00835 38.5912 9.05982 43.4631 11.9296C48.3351 14.7995 51.2865 20.0181 52.2676 25.8558C53.2489 31.6949 52.2339 38.0353 49.3078 43.0028Z" stroke="#F0F0F0" stroke-width="2"/>
<path d="M31.7031 18.6597C33.2738 18.6357 34.8325 18.6477 36.3912 18.6357C36.4871 20.4702 37.1465 22.3406 38.4894 23.6355C39.8323 24.9664 41.7267 25.5779 43.5731 25.7817V30.6136C41.8466 30.5537 40.108 30.194 38.5374 29.4506C37.8539 29.1389 37.2185 28.7432 36.595 28.3356C36.583 31.8366 36.607 35.3377 36.571 38.8267C36.4751 40.5053 35.9236 42.1719 34.9524 43.5507C33.3817 45.8528 30.66 47.3515 27.8664 47.3995C26.1518 47.4954 24.4373 47.0278 22.9745 46.1645C20.5525 44.7377 18.85 42.1239 18.5982 39.3183C18.5742 38.7188 18.5622 38.1193 18.5862 37.5318C18.802 35.2537 19.9291 33.0716 21.6796 31.5848C23.6699 29.8583 26.4516 29.031 29.0534 29.5226C29.0773 31.2971 29.0054 33.0716 29.0054 34.8461C27.8184 34.4624 26.4276 34.5703 25.3845 35.2897C24.6291 35.7813 24.0536 36.5366 23.7538 37.3879C23.502 37.9994 23.574 38.6708 23.586 39.3183C23.8737 41.2846 25.7681 42.9392 27.7824 42.7594C29.1253 42.7474 30.4082 41.9681 31.1036 40.829C31.3314 40.4334 31.5832 40.0257 31.5952 39.5581C31.7151 37.4119 31.6672 35.2777 31.6791 33.1315C31.6911 28.2996 31.6672 23.4797 31.7031 18.6597Z" fill="#D9D9D9"/>
</svg>
