<svg width="64" height="66" viewBox="0 0 64 66" fill="none" xmlns="http://www.w3.org/2000/svg">
<path d="M49.7347 43.367C46.8086 48.3345 41.7551 52.296 36.1723 54.2685C30.5909 56.2405 24.5957 56.1891 19.7238 53.3192C14.8519 50.4494 11.9004 45.2308 10.9194 39.3931C9.93806 33.554 10.953 27.2135 13.8791 22.2461C16.8052 17.2786 21.8587 13.3171 27.4415 11.3446C33.0229 9.37261 39.0181 9.42408 43.89 12.2939C48.7619 15.1637 51.7134 20.3824 52.6945 26.22C53.6758 32.0591 52.6608 38.3996 49.7347 43.367Z" stroke="#331B3B" stroke-opacity="0.64" stroke-width="2"/>
<path d="M32.13 19.024C33.7007 19 35.2594 19.012 36.8181 19C36.914 20.8345 37.5734 22.7049 38.9163 23.9998C40.2592 25.3307 42.1536 25.9421 44 26.146V30.9779C42.2735 30.9179 40.5349 30.5583 38.9642 29.8149C38.2808 29.5031 37.6454 29.1075 37.0219 28.6998C37.0099 32.2009 37.0339 35.7019 36.9979 39.191C36.902 40.8696 36.3505 42.5362 35.3793 43.915C33.8086 46.217 31.0869 47.7158 28.2932 47.7637C26.5787 47.8597 24.8641 47.3921 23.4014 46.5288C20.9794 45.102 19.2768 42.4882 19.0251 39.6826C19.0011 39.0831 18.9891 38.4836 19.0131 37.8961C19.2289 35.618 20.3559 33.4358 22.1065 31.9491C24.0968 30.2225 26.8784 29.3952 29.4802 29.8868C29.5042 31.6613 29.4323 33.4358 29.4323 35.2103C28.2453 34.8267 26.8545 34.9346 25.8113 35.654C25.056 36.1455 24.4805 36.9009 24.1807 37.7522C23.9289 38.3637 24.0009 39.0351 24.0129 39.6826C24.3006 41.6489 26.195 43.3035 28.2093 43.1237C29.5522 43.1117 30.8351 42.3323 31.5305 41.1933C31.7583 40.7976 32.0101 40.39 32.0221 39.9224C32.142 37.7762 32.094 35.642 32.106 33.4958C32.118 28.6639 32.094 23.8439 32.13 19.024Z" fill="#102C03"/>
</svg>
