<svg width="52" height="48" viewBox="0 0 52 48" fill="none" xmlns="http://www.w3.org/2000/svg">
<rect width="52" height="48" rx="10" fill="#D4F0FF"/>
<path d="M26.3561 28.3899C24.7278 28.3899 23.1 27.7699 21.8605 26.5304C19.3819 24.0519 19.3819 20.0183 21.8605 17.5397C24.3395 15.0612 28.373 15.0608 30.8516 17.5397C33.3306 20.0183 33.3306 24.0519 30.8516 26.5304C29.6121 27.7699 27.9839 28.3899 26.3561 28.3899ZM26.3557 16.468C24.9295 16.468 23.5029 17.0108 22.417 18.0967C20.2453 20.2684 20.2453 23.8018 22.417 25.9735C24.5888 28.1453 28.1225 28.1453 30.2943 25.9735C32.466 23.8018 32.466 20.2684 30.2943 18.0967C29.2084 17.0112 27.7822 16.468 26.3557 16.468Z" fill="#102C03"/>
<path d="M39.2719 32.8651L34.0371 27.6299C33.5589 27.1518 32.8334 27.0769 32.2706 27.394L31.1154 26.2388C33.3195 23.7448 33.236 19.9252 30.8511 17.5407C28.3729 15.0618 24.339 15.0621 21.86 17.5407C19.3815 20.0193 19.3815 24.0528 21.86 26.5314C23.0995 27.7705 24.7274 28.3908 26.3556 28.3908C27.8601 28.3908 29.3607 27.8544 30.5585 26.7961L31.7137 27.9513C31.3966 28.5141 31.4711 29.2392 31.9496 29.7178L37.1848 34.9526C37.4625 35.2307 37.8331 35.3839 38.2282 35.3839C38.6232 35.3839 38.9938 35.2307 39.2715 34.9526C39.5496 34.6745 39.7028 34.3039 39.7028 33.9089C39.7028 33.5138 39.55 33.1428 39.2719 32.8651ZM22.4173 25.9745C20.2456 23.8027 20.2456 20.2694 22.4173 18.0976C23.5032 17.0118 24.9294 16.469 26.356 16.469C27.7825 16.469 29.2087 17.0118 30.2946 18.0976C32.4664 20.2694 32.4664 23.8027 30.2946 25.9745C28.1228 28.1463 24.5887 28.1459 22.4173 25.9745ZM38.715 34.3957C38.4566 34.654 38.0005 34.654 37.7418 34.3957L32.5065 29.1605C32.2383 28.8918 32.2383 28.4554 32.5065 28.1868C32.6408 28.0529 32.8169 27.9856 32.9933 27.9856C33.1694 27.9856 33.3458 28.0525 33.4798 28.1868L38.7146 33.422C38.8438 33.5512 38.9151 33.7241 38.9151 33.9085C38.9151 34.0928 38.8442 34.2661 38.715 34.3957Z" fill="#102C03"/>
<path d="M36.5795 28.8632C36.7973 28.8632 36.9734 28.6871 36.9734 28.4693V9.24056C36.9734 8.15744 36.0923 7.27637 35.0092 7.27637H18.2606C17.1774 7.27637 16.2968 8.15744 16.2968 9.24056V40.7602C16.2968 41.8429 17.1778 42.724 18.2606 42.724H35.0088C36.0919 42.724 36.973 41.8429 36.973 40.7602V35.9752C36.973 35.7574 36.7969 35.5813 36.5791 35.5813C36.3613 35.5813 36.1852 35.7574 36.1852 35.9752V36.9933H17.0845V25.3109L18.1046 26.9805C18.1625 27.0754 18.2582 27.1412 18.3673 27.1621C18.3917 27.1668 18.4161 27.1692 18.4405 27.1692C18.5256 27.1692 18.6091 27.1416 18.6784 27.0896L19.927 26.1451C20.1003 26.0136 20.1345 25.7666 20.0034 25.5933C19.8718 25.42 19.6249 25.3858 19.4516 25.5169L18.55 26.1991L17.0845 23.8005V11.7948H36.1856V17.85L33.3478 19.889C33.171 20.0158 33.1304 20.262 33.2577 20.4389C33.3345 20.546 33.4554 20.6031 33.5779 20.6031C33.6574 20.6031 33.7378 20.5791 33.8071 20.5291L36.1856 18.8201V28.4697C36.1856 28.6867 36.3617 28.8632 36.5795 28.8632ZM36.1856 37.781V40.7598C36.1856 41.4081 35.6579 41.9359 35.0092 41.9359H18.2606C17.6123 41.9359 17.0845 41.4081 17.0845 40.7598V37.781H36.1856ZM17.0845 11.007V9.24056C17.0845 8.59187 17.6123 8.06409 18.2606 8.06409H35.0088C35.6575 8.06409 36.1852 8.59187 36.1852 9.24056V11.007H17.0845Z" fill="#102C03"/>
</svg>
