<svg width="52" height="48" viewBox="0 0 52 48" fill="none" xmlns="http://www.w3.org/2000/svg">
<rect width="52" height="48" rx="10" fill="#FFD4D4"/>
<g clip-path="url(#clip0_156_489)">
<path d="M31.4428 23.5484C30.6535 23.5484 29.9115 23.2412 29.3537 22.6831C28.7956 22.125 28.488 21.3833 28.488 20.594C28.488 19.8051 28.7952 19.0631 29.3537 18.505C29.9115 17.9469 30.6535 17.6396 31.4428 17.6396C32.2317 17.6396 32.9737 17.9469 33.5318 18.505C34.6835 19.657 34.6835 21.5314 33.5318 22.6831C32.9741 23.2412 32.2317 23.5484 31.4428 23.5484ZM31.4428 18.4274C30.8638 18.4274 30.3199 18.6527 29.9107 19.0619C29.5014 19.4711 29.2758 20.0154 29.2758 20.594C29.2758 21.1726 29.5011 21.7169 29.9107 22.1261C30.3199 22.5354 30.8638 22.7606 31.4428 22.7606C32.0214 22.7606 32.5657 22.5354 32.9749 22.1261C33.8197 21.2813 33.8197 19.9067 32.9749 19.0619C32.5657 18.6527 32.0214 18.4274 31.4428 18.4274ZM29.6322 18.7834H29.6361H29.6322Z" fill="#102C03"/>
<path d="M43.7215 10.6692C43.7219 10.4919 43.7207 10.3139 43.7163 10.1347C43.7144 10.0358 43.7104 9.93657 43.7069 9.83771C43.7026 9.71404 43.6986 9.59115 43.6923 9.46669C43.6801 9.22919 43.6647 8.9913 43.6447 8.75183C43.6289 8.56002 43.4769 8.40799 43.2851 8.39184C43.0444 8.37175 42.8053 8.35639 42.5667 8.34418C42.4489 8.33788 42.3319 8.33473 42.2145 8.3304C42.1086 8.32646 42.0022 8.32252 41.8967 8.32016C41.7246 8.31661 41.5536 8.31543 41.3831 8.31543C41.3532 8.31543 41.3236 8.31543 41.2937 8.31582C37.8068 8.33394 34.6083 9.20753 31.3715 11.0173C31.3676 11.0197 31.3656 11.024 31.3617 11.0264C28.7507 12.4801 26.1422 14.5361 23.4391 17.2396C23.0905 17.5881 22.7479 17.941 22.4119 18.2967C22.3989 18.2963 22.3871 18.2908 22.3737 18.292L16.9593 18.7036C16.8837 18.7095 16.8108 18.7366 16.7505 18.7827L8.42902 25.1141C8.29944 25.2125 8.2439 25.3803 8.2888 25.5363C8.3337 25.6926 8.46998 25.8053 8.63186 25.8199L16.5879 26.5379L19.7856 29.7352C18.7431 29.7289 17.5706 30.2169 16.6332 31.1539C16.2086 31.5785 15.8679 32.0543 15.6198 32.5711C15.2724 33.3072 14.4996 35.2261 13.6812 37.258L13.2873 38.236C13.2282 38.3825 13.2625 38.5503 13.374 38.6617C13.4492 38.737 13.55 38.7771 13.6524 38.7771C13.702 38.7771 13.7521 38.7681 13.7997 38.7488L14.8116 38.3411C16.8281 37.529 18.7325 36.7621 19.4674 36.4155C19.981 36.1682 20.4572 35.8279 20.8818 35.4029C21.6246 34.6601 22.1157 33.7479 22.2646 32.8342C22.2969 32.6364 22.3083 32.4446 22.3075 32.2575L25.425 35.3738L26.1434 43.3306C26.1579 43.4925 26.2706 43.6287 26.427 43.6736C26.4628 43.6839 26.4998 43.689 26.5357 43.689C26.6566 43.689 26.7736 43.6331 26.8492 43.5334L33.1809 35.2123C33.2266 35.152 33.2546 35.0796 33.2601 35.0039L33.6638 29.6955C34.0454 29.3367 34.4239 28.9712 34.7977 28.5974C37.5016 25.8935 39.5575 23.285 41.0117 20.6737C41.0137 20.6701 41.0176 20.6685 41.0196 20.665C42.8313 17.4251 43.7049 14.2242 43.7211 10.7314C43.7211 10.7109 43.7211 10.69 43.7215 10.6692ZM42.3177 15.4518C42.3055 15.4979 42.2925 15.5436 42.2799 15.5897C41.914 16.9079 41.3662 18.314 40.571 19.8111L32.2258 11.4659C33.7205 10.6719 35.125 10.1248 36.4413 9.75894C36.4909 9.74554 36.5406 9.73137 36.5902 9.71797C36.6875 9.69159 36.784 9.66756 36.8805 9.64353C38.808 9.16775 40.7848 9.00784 42.8853 9.15199C43.0294 11.2501 42.8699 13.2257 42.3949 15.1513C42.3697 15.251 42.3449 15.351 42.3177 15.4518ZM17.135 19.4795L21.6407 19.1372C20.8286 20.0372 20.0621 20.9525 19.3457 21.8761C19.3445 21.8773 19.3429 21.8781 19.3418 21.8793C19.311 21.9187 19.2831 21.958 19.2528 21.9974C19.0219 22.2968 18.7951 22.5965 18.5757 22.897C18.5316 22.9577 18.4898 23.0179 18.4461 23.0782C18.2389 23.3649 18.0341 23.6516 17.838 23.9384C17.7561 24.0581 17.6801 24.1767 17.6001 24.296C17.4477 24.5237 17.2937 24.7517 17.1487 24.9794C16.9825 25.2393 16.827 25.4973 16.6714 25.7549L9.7138 25.1263L17.135 19.4795ZM17.9258 25.2283C18.0235 25.0774 18.1255 24.9254 18.2271 24.7738C18.3307 24.6182 18.4355 24.4622 18.5426 24.3066C18.6753 24.114 18.8108 23.9207 18.9491 23.7273C19.0231 23.6233 19.0988 23.5197 19.174 23.4161C19.337 23.192 19.5017 22.9679 19.6722 22.7434C19.6789 22.7347 19.686 22.7257 19.6927 22.717L29.3199 32.3442C29.3088 32.3525 29.2978 32.3611 29.2868 32.3698C29.0666 32.5368 28.8468 32.6979 28.6271 32.8582C28.5195 32.9366 28.412 33.0145 28.3045 33.0913C28.1139 33.2276 27.9236 33.3608 27.7342 33.4915C27.5735 33.6022 27.4128 33.7101 27.2521 33.8168C27.1056 33.9149 26.9587 34.0138 26.8125 34.1083C26.4967 34.3123 26.1808 34.5116 25.8665 34.7011L17.3354 26.1708C17.5241 25.8573 17.7226 25.543 17.9258 25.2283ZM21.4875 32.7077C21.365 33.4596 20.9523 34.219 20.3252 34.846C19.9633 35.2076 19.56 35.4971 19.1287 35.7042C18.4174 36.0402 16.4347 36.8382 14.5173 37.6105L14.3637 37.6724L14.413 37.5499C15.1905 35.6192 15.9943 33.6227 16.3307 32.9102C16.539 32.4757 16.8285 32.0728 17.1901 31.7113C17.9723 30.929 18.9349 30.5084 19.7593 30.5084C20.263 30.5084 20.7152 30.6652 21.0429 30.9932C21.4446 31.3942 21.6025 32.0027 21.4875 32.7077ZM32.4834 34.8283L26.8366 42.2486L26.2186 35.4041C26.4971 35.2371 26.7763 35.0678 27.0575 34.8878C27.2793 34.7464 27.501 34.5963 27.7228 34.4482C27.8484 34.3643 27.9733 34.2844 28.0993 34.1977C28.3785 34.0067 28.6574 33.8074 28.9363 33.6061C29.0056 33.5561 29.0745 33.5084 29.1438 33.458C29.4337 33.2465 29.7224 33.0275 30.0111 32.8054C30.0599 32.768 30.1088 32.7329 30.1576 32.6951C30.1592 32.6939 30.16 32.6916 30.1616 32.6904C31.0552 31.9972 31.9422 31.2579 32.8142 30.4745L32.4834 34.8283ZM34.2408 28.0405C32.8568 29.4245 31.4121 30.7061 29.9489 31.859L20.1775 22.088C21.3304 20.6248 22.612 19.1801 23.9964 17.7961C26.7149 15.0777 29.2147 13.1788 31.5086 11.8629L40.1739 20.5283C38.858 22.8222 36.9592 25.322 34.2408 28.0405Z" fill="#102C03"/>
</g>
<defs>
<clipPath id="clip0_156_489">
<rect width="36" height="36" fill="white" transform="translate(8 8)"/>
</clipPath>
</defs>
</svg>
